<svg xmlns="http://www.w3.org/2000/svg" xmlns:xlink="http://www.w3.org/1999/xlink" aria-hidden="true" focusable="false" width="100%" height="100%" style="-ms-transform: rotate(360deg); -webkit-transform: rotate(360deg); transform: rotate(360deg);" preserveAspectRatio="xMidYMid meet" viewBox="0 0 32 32"><path d="M16 2a14 14 0 1 0 14 14A14 14 0 0 0 16 2zm8 22.919v-.608A5.209 5.209 0 0 0 19 19h-6a5.2 5.2 0 0 0-4.99 5.31c0 .011-.01.022-.01.033v.585a12.005 12.005 0 1 1 16-.01z" fill="#597EF7"/><path d="M16 7a5 5 0 1 0 5 5a5 5 0 0 0-5-5z" fill="#597EF7"/></svg>